# xmcd
#
# Track frame offsets:
#	150
#	16905
#	38227
#	61752
#
# Disc length: 1157 seconds
#
# Revision: 0
# Processed by: cddbd v1.5.2PL0 Copyright (c) Steve Scherf et al.
# Submitted via: dBpowerAMP V4.0
#
DISCID=26048304
DTITLE=Blackout - Mr DJ CDS
DYEAR=2001
DGENRE=Dance
TTITLE0=Mr DJ (Radio Edit)
TTITLE1=Mr DJ (Architechs Remix Edit)
TTITLE2=Mr DJ (Stone Remix)
TTITLE3=Mr DJ (extended Mix)
EXTD=
EXTT0=
EXTT1=
EXTT2=
EXTT3=
PLAYORDER=
